<?xml version="1.0" encoding="UTF-8" standalone="no"?>
<!DOCTYPE svg PUBLIC "-//W3C//DTD SVG 1.1//EN" "http://www.w3.org/Graphics/SVG/1.1/DTD/svg11.dtd">
<svg width="100%" height="100%" viewBox="0 0 16 16" version="1.1" xmlns="http://www.w3.org/2000/svg" xmlns:xlink="http://www.w3.org/1999/xlink" xml:space="preserve" xmlns:serif="http://www.serif.com/" style="fill-rule:evenodd;clip-rule:evenodd;stroke-linecap:round;stroke-linejoin:round;stroke-miterlimit:1.5;">
    <g id="graph-editor-16x16" serif:id="graph editor 16x16">
        <rect id="Rectangle" x="0" y="0" width="16" height="16" style="fill:none;"/>
        <path id="Curves" d="M8,4c2.208,0 4,1.792 4,4c0,2.208 -1.792,4 -4,4c-2.208,0 -4,-1.792 -4,-4c0,-2.208 1.792,-4 4,-4Zm0,2c1.104,0 2,0.896 2,2c0,1.104 -0.896,2 -2,2c-1.104,0 -2,-0.896 -2,-2c0,-1.104 0.896,-2 2,-2Z" style="fill:#81ba41;"/>
        <circle id="Ellipse" cx="13.955" cy="2.045" r="2.045" style="fill:#81ba41;"/>
        <circle id="Ellipse1" serif:id="Ellipse" cx="14" cy="14" r="2" style="fill:#81ba41;"/>
        <circle id="Ellipse2" serif:id="Ellipse" cx="2" cy="2" r="2" style="fill:#81ba41;"/>
        <circle id="Ellipse3" serif:id="Ellipse" cx="2" cy="14" r="2" style="fill:#81ba41;"/>
        <path id="Curve" d="M9.865,9.91l4.09,4.09" style="fill:none;stroke:#81ba41;stroke-width:1px;"/>
        <path id="Curve1" serif:id="Curve" d="M2,2.045l3.955,3.955" style="fill:none;stroke:#81ba41;stroke-width:1px;"/>
        <path id="Curve2" serif:id="Curve" d="M13.955,2.045l-4.09,4.09" style="fill:none;stroke:#81ba41;stroke-width:1px;"/>
        <path id="Curve3" serif:id="Curve" d="M6,10l-4,4" style="fill:none;stroke:#81ba41;stroke-width:1px;"/>
    </g>
</svg>